<svg
  width="200"
  height="120"
  viewBox="0 0 200 120"
  fill="none"
  xmlns="http://www.w3.org/2000/svg"
>
  <g clip-path="url(#clip0_1910_15942)">
    <rect width="200" height="120" rx="4" fill="var(--color-bg-secondary)" />
    <rect
      x="37"
      y="28"
      width="126"
      height="64"
      rx="4"
      fill="var(--color-bg-default)"
    />
    <path
      d="M59.54 67.2924C59.8199 66.3323 61.1801 66.3323 61.46 67.2924L62.0519 69.3225C62.1795 69.7601 62.5868 70.056 63.0424 70.0421L65.156 69.9777C66.1556 69.9473 66.5759 71.2409 65.7493 71.8038L64.0016 72.9941C63.6249 73.2506 63.4693 73.7295 63.6232 74.1584L64.3376 76.1487C64.6754 77.09 63.5751 77.8895 62.7842 77.2773L61.1121 75.9829C60.7517 75.7039 60.2483 75.7039 59.8879 75.9829L58.2157 77.2773C57.4249 77.8895 56.3246 77.09 56.6624 76.1487L57.3768 74.1584C57.5307 73.7295 57.3751 73.2506 56.9984 72.9941L55.2507 71.8038C54.4241 71.2409 54.8444 69.9473 55.844 69.9777L57.9576 70.0421C58.4132 70.056 58.8205 69.7601 58.9481 69.3225L59.54 67.2924Z"
      fill="var(--color-control-bg-primary)"
    />
    <path
      d="M79.54 67.2924C79.8199 66.3323 81.1801 66.3323 81.46 67.2924L82.0519 69.3225C82.1795 69.7601 82.5868 70.056 83.0424 70.0421L85.156 69.9777C86.1556 69.9473 86.5759 71.2409 85.7493 71.8038L84.0016 72.9941C83.6249 73.2506 83.4693 73.7295 83.6232 74.1584L84.3376 76.1487C84.6754 77.09 83.5751 77.8895 82.7842 77.2773L81.1121 75.9829C80.7517 75.7039 80.2483 75.7039 79.8879 75.9829L78.2157 77.2773C77.4249 77.8895 76.3246 77.09 76.6624 76.1487L77.3768 74.1584C77.5307 73.7295 77.3751 73.2506 76.9984 72.9941L75.2507 71.8038C74.4241 71.2409 74.8444 69.9473 75.844 69.9777L77.9576 70.0421C78.4132 70.056 78.8205 69.7601 78.9481 69.3225L79.54 67.2924Z"
      fill="var(--color-control-bg-primary)"
    />
    <path
      d="M99.54 67.2924C99.8199 66.3323 101.18 66.3323 101.46 67.2924L102.052 69.3225C102.18 69.7601 102.587 70.056 103.042 70.0421L105.156 69.9777C106.156 69.9473 106.576 71.2409 105.749 71.8038L104.002 72.9941C103.625 73.2506 103.469 73.7295 103.623 74.1584L104.338 76.1487C104.675 77.09 103.575 77.8895 102.784 77.2773L101.112 75.9829C100.752 75.7039 100.248 75.7039 99.8879 75.9829L98.2157 77.2773C97.4249 77.8895 96.3246 77.09 96.6624 76.1487L97.3768 74.1584C97.5307 73.7295 97.3751 73.2506 96.9984 72.9941L95.2507 71.8038C94.4241 71.2409 94.8444 69.9473 95.844 69.9777L97.9576 70.0421C98.4132 70.056 98.8205 69.7601 98.9481 69.3225L99.54 67.2924Z"
      fill="var(--color-control-bg-primary)"
    />
    <path
      d="M119.54 67.2924C119.82 66.3323 121.18 66.3323 121.46 67.2924L122.052 69.3225C122.18 69.7601 122.587 70.056 123.042 70.0421L125.156 69.9777C126.156 69.9473 126.576 71.2409 125.749 71.8038L124.002 72.9941C123.625 73.2506 123.469 73.7295 123.623 74.1584L124.338 76.1487C124.675 77.09 123.575 77.8895 122.784 77.2773L121.112 75.9829C120.752 75.7039 120.248 75.7039 119.888 75.9829L118.216 77.2773C117.425 77.8895 116.325 77.09 116.662 76.1487L117.377 74.1584C117.531 73.7295 117.375 73.2506 116.998 72.9941L115.251 71.8038C114.424 71.2409 114.844 69.9473 115.844 69.9777L117.958 70.0421C118.413 70.056 118.82 69.7601 118.948 69.3225L119.54 67.2924Z"
      fill="var(--color-typo-ghost)"
      fill-opacity="0.3"
    />
    <path
      d="M139.54 67.2924C139.82 66.3323 141.18 66.3323 141.46 67.2924L142.052 69.3225C142.18 69.7601 142.587 70.056 143.042 70.0421L145.156 69.9777C146.156 69.9473 146.576 71.2409 145.749 71.8038L144.002 72.9941C143.625 73.2506 143.469 73.7295 143.623 74.1584L144.338 76.1487C144.675 77.09 143.575 77.8895 142.784 77.2773L141.112 75.9829C140.752 75.7039 140.248 75.7039 139.888 75.9829L138.216 77.2773C137.425 77.8895 136.325 77.09 136.662 76.1487L137.377 74.1584C137.531 73.7295 137.375 73.2506 136.998 72.9941L135.251 71.8038C134.424 71.2409 134.844 69.9473 135.844 69.9777L137.958 70.0421C138.413 70.056 138.82 69.7601 138.948 69.3225L139.54 67.2924Z"
      fill="var(--color-typo-ghost)"
      fill-opacity="0.3"
    />
    <rect
      width="60.7143"
      height="10.0007"
      transform="matrix(1 0 -0.0117399 0.999931 52 42)"
      fill="var(--color-typo-ghost)"
      fill-opacity="0.35"
    />
  </g>
  <defs>
    <clipPath id="clip0_1910_15942">
      <rect width="200" height="120" rx="3" fill="var(--color-bg-default)" />
    </clipPath>
  </defs>
</svg>
